<svg width="48" height="48" viewBox="0 0 48 48" fill="none" xmlns="http://www.w3.org/2000/svg">
<path d="M5.99804 6L41.998 42M19.6866 19.8273C18.6413 20.9072 17.998 22.3784 17.998 24C17.998 27.3138 20.6844 30 23.998 30C25.643 30 27.1334 29.338 28.2172 28.266M12.998 13.2943C9.19944 15.8007 6.3061 19.5679 4.91406 24C7.46256 32.1142 15.0432 38 23.9984 38C27.9762 38 31.6828 36.8388 34.7976 34.8368M21.998 10.0988C22.656 10.0335 23.3234 10 23.9984 10C32.9538 10 40.5344 15.8858 43.0828 24C42.5214 25.788 41.7154 27.4676 40.7044 29" stroke="#B88E2F" stroke-width="3" stroke-linecap="round" stroke-linejoin="round"/>
</svg>
