<svg width="23" height="29" viewBox="0 0 23 29" fill="none" xmlns="http://www.w3.org/2000/svg">
<path d="M11.5 0C8.45112 0.00356334 5.52814 1.20502 3.37225 3.34083C1.21637 5.47663 0.00360909 8.37238 1.22348e-05 11.3929C-0.00363942 13.8612 0.810218 16.2626 2.31674 18.2286C2.31674 18.2286 2.63037 18.6377 2.6816 18.6967L11.5 29L20.3226 18.6915C20.3686 18.6366 20.6833 18.2286 20.6833 18.2286L20.6843 18.2255C22.1901 16.2603 23.0036 13.8601 23 11.3929C22.9964 8.37238 21.7836 5.47663 19.6277 3.34083C17.4719 1.20502 14.5489 0.00356334 11.5 0ZM11.5 15.5357C10.6729 15.5357 9.8644 15.2927 9.17671 14.8375C8.48901 14.3823 7.95302 13.7353 7.63651 12.9783C7.32 12.2213 7.23718 11.3883 7.39854 10.5846C7.55989 9.78099 7.95817 9.0428 8.54301 8.46342C9.12785 7.88403 9.87298 7.48946 10.6842 7.3296C11.4954 7.16975 12.3362 7.25179 13.1003 7.56536C13.8644 7.87892 14.5175 8.40992 14.9771 9.09121C15.4366 9.7725 15.6818 10.5735 15.6818 11.3929C15.6804 12.4912 15.2394 13.5441 14.4555 14.3208C13.6715 15.0974 12.6087 15.5343 11.5 15.5357Z" fill="#B88E2F"/>
</svg>
