<svg width="30" height="30" viewBox="0 0 30 30" fill="none" xmlns="http://www.w3.org/2000/svg">
<path d="M27.3091 23.7816L21.8327 18.8023C21.5738 18.567 21.2336 18.4415 20.884 18.4523C20.5343 18.4631 20.2026 18.6094 19.9587 18.8602L16.7348 22.1757C15.9588 22.0275 14.3988 21.5412 12.7929 19.9393C11.187 18.3321 10.7007 16.768 10.5565 15.9974L13.8693 12.7722C14.1204 12.5285 14.2669 12.1966 14.2777 11.8469C14.2885 11.4971 14.1628 11.1569 13.9272 10.8982L8.94928 5.4231C8.71357 5.16357 8.38598 5.00614 8.03607 4.98426C7.68617 4.96237 7.34151 5.07775 7.0753 5.30589L4.15185 7.81306C3.91893 8.04682 3.77991 8.35794 3.76116 8.6874C3.74095 9.0242 3.35565 17.0024 9.54205 23.1915C14.939 28.5871 21.6993 28.9818 23.5612 28.9818C23.8333 28.9818 24.0003 28.9737 24.0448 28.971C24.3742 28.9526 24.6852 28.813 24.9178 28.579L27.4236 25.6542C27.6527 25.3889 27.7689 25.0445 27.7475 24.6946C27.7261 24.3447 27.5688 24.0171 27.3091 23.7816Z" fill="#B88E2F"/>
</svg>
